# xmcd CD database file
#
# Track frame offsets:
#	150
#	20508
#	42763
#	76776
#	98850
#	125325
#	144721
#	181375
#	206258
#	226598
#	248075
#	252026
#	292136
#	319037
#
# Disc length: 4353 seconds
#
# Revision: 0
# Processed by: cddbd v1.5.1PL0 Copyright (c) Steve Scherf et al.
# Submitted via: CDex 1.51
#
DISCID=b410ff0e
DTITLE=Trüby Trio - retreated - Bonus Mix
DYEAR=2004
DGENRE=Broken Beat
TTITLE0=High Jazz (VIP Mix)
TTITLE1=New Music (Whignomy Bros Mix)
TTITLE2=High Jazz (Freeform Reform Instrumental)
TTITLE3=Make A Move (Guillaume Boulard Remix)
TTITLE4=Universal Love (Ame Remix)
TTITLE5=Jaleo (Cuica Remix)
TTITLE6=Allegre 2004 (Una Bombers Electric Chair Treatment)
TTITLE7=Curisin (Fabrice Lig Rework)
TTITLE8=New Music (Gucciman's New Music Remix)
TTITLE9=Runnin (Nickodemus Remix)
TTITLE10=Allegre 2004 (Louie Vega's Elements of Life Bonus Beats)
TTITLE11=Allegre 2004 (Louie Vega's Elements of Life Amigos Dubb)
TTITLE12=Make A Move (S.U.M.O. Rebounce)
TTITLE13=Jaleo (Senor Coconut Remix)
EXTD=YEAR: 2004
EXTT0=
EXTT1=
EXTT2=
EXTT3=
EXTT4=
EXTT5=
EXTT6=
EXTT7=
EXTT8=
EXTT9=
EXTT10=
EXTT11=
EXTT12=
EXTT13=
PLAYORDER=
